<?xml version="1.0" standalone="no"?>
<!DOCTYPE svg PUBLIC "-//W3C//DTD SVG 20010904//EN"
 "http://www.w3.org/TR/2001/REC-SVG-20010904/DTD/svg10.dtd">
<svg version="1.0" xmlns="http://www.w3.org/2000/svg"
 width="260.000000pt" height="260.000000pt" viewBox="0 0 260.000000 260.000000"
 preserveAspectRatio="xMidYMid meet">
<metadata>
Created by potrace 1.14, written by Peter Selinger 2001-2017
</metadata>
<g transform="translate(0.000000,260.000000) scale(0.100000,-0.100000)"
fill="#000000" stroke="none">
<path d="M1975 2278 c-30 -16 -55 -50 -55 -77 0 -25 59 -141 72 -141 5 0 8 -6
8 -12 0 -19 60 -82 100 -107 44 -27 110 -28 133 -3 34 37 40 76 22 140 -24 85
-61 124 -160 172 -92 44 -91 44 -120 28z m87 -55 c2 -5 30 -22 62 -39 33 -17
62 -37 65 -45 3 -10 -3 -9 -22 4 -31 20 -58 22 -75 5 -7 -7 -30 -13 -52 -13
-34 0 -42 4 -54 29 -22 45 -11 66 34 66 21 0 40 -3 42 -7z m91 -121 c-19 -3
-23 -10 -23 -38 0 -19 5 -34 10 -34 6 0 10 7 10 15 0 9 9 15 21 15 14 0 19 5
16 14 -8 20 4 28 20 15 7 -7 13 -31 13 -56 0 -36 -4 -46 -20 -50 -11 -3 -20
-9 -20 -14 0 -14 -43 -10 -63 6 -13 9 -17 20 -12 35 5 17 3 21 -12 20 -31 -4
-43 0 -43 11 0 15 26 39 43 39 8 0 17 8 20 19 3 15 11 17 33 13 26 -6 26 -7 7
-10z"/>
<path d="M2166 2041 c-7 -11 22 -23 35 -15 5 3 7 10 4 15 -8 12 -32 12 -39 0z"/>
<path d="M2130 1995 c0 -8 7 -15 15 -15 8 0 15 7 15 15 0 8 -7 15 -15 15 -8 0
-15 -7 -15 -15z"/>
<path d="M1713 2150 c-57 -24 -54 -83 12 -188 25 -40 45 -74 45 -77 0 -5 47
-60 67 -79 35 -32 46 -36 90 -36 38 1 51 5 64 23 44 60 31 139 -36 221 -24 29
-50 66 -59 82 -8 16 -19 35 -24 42 -11 17 -127 26 -159 12z m63 -51 c3 -6 17
-9 30 -6 31 6 31 -7 0 -21 -20 -9 -23 -17 -22 -62 l2 -52 -21 26 c-33 41 -49
94 -35 111 15 18 36 19 46 4z m119 -87 c11 -9 26 -25 34 -35 12 -15 10 -17
-25 -17 -30 0 -35 3 -26 12 7 7 12 18 12 25 0 18 -27 16 -34 -2 -8 -22 -36
-18 -36 4 0 14 5 18 20 14 11 -3 20 0 20 6 0 15 12 13 35 -7z m-39 -88 c18 -5
24 -13 24 -33 0 -44 -13 -54 -36 -29 -10 13 -25 36 -32 52 -11 25 -11 28 4 22
9 -3 27 -9 40 -12z m108 -3 c3 -5 -3 -11 -14 -14 -26 -7 -26 -27 1 -34 16 -4
17 -8 7 -14 -7 -4 -13 -15 -13 -23 0 -9 -4 -17 -10 -18 -12 -4 -25 60 -17 81
10 27 36 39 46 22z"/>
<path d="M1142 2103 c-42 -43 -49 -57 -66 -129 -11 -46 -15 -90 -11 -103 15
-49 22 -131 11 -140 -6 -5 -121 -13 -256 -18 -233 -10 -247 -11 -295 -36 -57
-28 -80 -62 -80 -117 0 -49 34 -81 108 -105 56 -17 189 -17 447 1 l85 6 13
-41 c16 -54 17 -561 1 -606 -9 -25 -20 -33 -54 -41 -24 -5 -51 -7 -62 -3 -33
14 -124 10 -139 -5 -24 -24 -17 -83 15 -129 26 -38 112 -124 169 -169 97 -78
268 -60 296 30 4 12 11 22 15 22 14 0 33 74 42 164 6 50 14 228 19 396 11 378
18 409 101 411 116 4 161 7 234 14 44 4 85 11 90 15 6 4 22 10 38 14 15 3 27
11 27 16 0 6 6 10 13 10 32 0 87 133 65 155 -3 4 -53 18 -112 32 -99 25 -112
26 -184 15 -108 -16 -256 -25 -281 -17 -20 6 -21 14 -21 108 0 56 -5 120 -11
142 -12 47 -40 105 -51 105 -5 0 -8 7 -8 15 0 8 -7 15 -15 15 -8 0 -15 5 -15
10 0 6 -18 10 -40 10 -35 0 -47 -6 -88 -47z m126 -13 c12 -12 23 -17 23 -13 6
34 18 -107 18 -213 1 -104 4 -134 16 -144 8 -7 15 -18 15 -26 0 -13 61 -13
195 2 69 7 66 6 105 15 l35 8 -30 -25 c-16 -13 -37 -24 -45 -24 -8 0 -35 -11
-59 -25 -49 -28 -83 -32 -101 -10 -14 17 -80 21 -80 4 0 -5 -4 -7 -10 -4 -5 3
-7 0 -4 -8 3 -10 -7 -17 -35 -24 -29 -8 -40 -8 -38 1 1 6 -4 10 -10 8 -7 -1
-13 6 -13 15 0 12 -3 14 -8 6 -4 -6 -16 -13 -27 -15 -10 -1 -27 -10 -36 -18
-42 -36 -48 -40 -54 -30 -3 6 -15 10 -26 10 -11 0 -25 4 -32 10 -74 60 -77 62
-109 55 -18 -4 -42 -14 -53 -21 -27 -19 -32 -18 -39 11 -4 14 -11 23 -16 20
-6 -3 -10 -2 -10 3 0 13 198 26 253 18 23 -4 44 -12 48 -17 4 -7 9 -4 12 6 4
9 3 14 -2 11 -12 -8 -35 217 -27 266 10 61 46 133 75 152 34 20 43 20 69 -4z
m562 -391 c0 -6 -6 -9 -12 -6 -15 5 -68 -23 -68 -36 0 -5 -7 -2 -15 7 -8 8
-15 19 -15 24 0 6 -6 13 -12 15 -7 3 17 6 55 6 42 1 67 -3 67 -10z m90 -32 c0
-25 -49 -87 -68 -87 -7 0 -12 -4 -12 -9 0 -5 -16 -11 -35 -13 -29 -3 -35 -1
-35 14 0 20 -15 24 -26 6 -4 -6 -2 -14 4 -16 20 -6 3 -22 -25 -22 -16 0 -27 7
-30 20 -7 26 -33 26 -33 1 0 -17 -9 -20 -75 -23 -41 -2 -75 -1 -75 2 0 3 -3
14 -6 26 -5 17 4 25 54 47 69 31 72 32 72 12 0 -8 9 -15 20 -15 24 0 25 4 4
25 -20 20 -9 33 14 18 10 -6 16 -22 15 -37 -2 -26 19 -37 32 -16 3 6 17 10 30
10 12 0 25 7 29 15 9 24 26 17 26 -10 0 -25 13 -31 45 -19 13 5 14 9 4 15 -10
6 -10 13 1 36 11 22 14 24 17 11 3 -10 13 -18 24 -18 20 0 26 15 9 25 -12 7
-4 25 11 25 5 0 9 -10 9 -23z m-1224 -37 c8 0 14 9 14 20 0 15 7 20 26 20 24
0 25 -3 19 -27 -4 -16 -7 -32 -6 -38 7 -63 17 -81 37 -64 11 9 11 13 -2 26
-13 14 -13 17 3 29 23 17 43 18 43 1 0 -21 21 -36 39 -27 72 36 96 41 126 26
17 -9 36 -16 43 -16 7 0 31 -12 53 -27 l41 -27 34 19 c19 10 34 22 34 27 0 4
6 8 14 8 21 0 28 -28 9 -38 -9 -5 -13 -14 -9 -21 10 -16 36 -14 36 4 0 8 7 15
15 15 8 0 15 5 15 10 0 6 9 10 19 10 11 0 23 5 26 10 12 20 25 9 25 -21 0 -24
4 -30 18 -27 12 2 17 13 17 36 0 34 9 42 19 16 5 -13 15 -15 41 -11 32 5 34 4
25 -13 -6 -11 -16 -17 -23 -14 -7 2 -31 -10 -53 -27 l-41 -31 -2 -226 c0 -124
-3 -228 -6 -230 -8 -8 -35 20 -29 30 6 10 -12 28 -28 28 -5 0 -8 -11 -8 -25 0
-17 -8 -29 -25 -37 -14 -6 -25 -15 -25 -21 0 -5 -11 -6 -25 -3 -18 5 -25 2
-25 -9 0 -9 9 -15 25 -15 19 0 25 -5 25 -23 0 -13 5 -28 12 -35 17 -17 1 -28
-21 -15 -10 6 -23 8 -30 3 -10 -5 -7 -13 10 -29 12 -11 29 -21 36 -21 20 0 15
-28 -8 -40 -11 -6 -32 -9 -47 -5 l-27 6 2 167 c2 92 3 187 3 211 0 34 3 42 15
38 18 -7 29 9 21 30 -5 12 -9 13 -21 3 -13 -11 -15 -5 -15 46 0 61 -18 143
-40 183 -11 21 -17 23 -60 18 -43 -5 -49 -4 -53 15 -5 18 -9 19 -21 9 -8 -7
-13 -18 -10 -25 8 -20 -128 -31 -139 -11 -10 19 -41 20 -34 1 9 -22 -124 -29
-221 -11 -85 16 -112 51 -87 112 15 36 39 50 125 68 54 12 55 11 58 -12 2 -12
10 -23 18 -23z m132 28 c-3 -7 -15 -14 -29 -16 -24 -4 -24 -3 -4 12 24 19 38
20 33 4z m495 -668 l28 -14 -2 -115 c-1 -127 -24 -304 -39 -309 -6 -2 -10 -8
-10 -13 0 -11 -14 -30 -49 -65 -45 -45 -143 -25 -223 46 -54 48 -59 66 -22 80
37 14 65 12 85 -6 20 -18 43 -10 35 12 -3 9 6 15 29 20 39 7 39 7 24 35 -25
48 36 139 92 139 16 0 29 -4 29 -10 0 -5 5 -10 10 -10 16 0 12 19 -8 41 -11
10 -26 45 -35 76 -14 51 -14 60 -1 86 9 15 18 27 22 25 4 -2 20 -10 35 -18z
m-153 -222 c0 -7 -4 -19 -9 -27 -8 -12 -12 -13 -25 -2 -12 11 -14 17 -5 27 14
17 39 18 39 2z m-138 -33 c66 0 78 -3 82 -19 2 -10 9 -15 15 -11 7 4 11 -5 11
-22 0 -36 -29 -55 -70 -47 -20 5 -30 12 -30 25 0 11 7 19 15 19 8 0 15 7 15
15 0 8 -7 15 -15 15 -8 0 -15 -6 -15 -14 0 -8 -6 -16 -14 -19 -8 -3 -12 -14
-10 -24 6 -24 -73 -63 -86 -42 -5 8 -3 17 7 24 9 7 13 17 9 24 -6 9 -11 9 -22
0 -21 -17 -44 6 -44 46 0 41 8 48 45 39 16 -5 65 -9 107 -9z"/>
<path d="M1170 1650 c0 -5 -7 -10 -15 -10 -13 0 -14 -2 -3 -14 11 -12 13 -12
16 0 2 8 8 14 13 14 5 0 9 5 9 10 0 6 -4 10 -10 10 -5 0 -10 -4 -10 -10z"/>
<path d="M1571 1590 c-16 -9 -6 -30 15 -30 15 0 20 25 6 34 -4 2 -14 1 -21 -4z"/>
<path d="M593 1598 c2 -7 10 -13 17 -13 7 0 15 6 18 13 2 7 -5 12 -18 12 -13
0 -20 -5 -17 -12z"/>
<path d="M507 1583 c-13 -12 -7 -23 13 -23 11 0 20 7 20 15 0 15 -21 21 -33 8z"/>
<path d="M657 1573 c-13 -12 -7 -33 8 -33 8 0 15 9 15 20 0 20 -11 26 -23 13z"/>
<path d="M917 1563 c-12 -11 -8 -23 8 -23 8 0 15 7 15 15 0 16 -12 20 -23 8z"/>
<path d="M1052 1548 c-16 -16 -15 -28 2 -28 19 0 27 13 17 28 -5 9 -10 9 -19
0z"/>
<path d="M545 1530 c-7 -12 2 -30 16 -30 5 0 9 9 9 20 0 21 -15 27 -25 10z"/>
<path d="M680 1509 c0 -24 23 -21 28 4 2 10 -3 17 -12 17 -10 0 -16 -9 -16
-21z"/>
<path d="M1300 1509 c0 -24 23 -21 28 4 2 10 -3 17 -12 17 -10 0 -16 -9 -16
-21z"/>
<path d="M1147 1494 c-13 -13 -7 -24 14 -24 11 0 19 5 17 12 -5 14 -22 21 -31
12z"/>
<path d="M1200 1476 c0 -18 16 -29 30 -21 13 8 1 35 -16 35 -8 0 -14 -6 -14
-14z"/>
<path d="M1270 1445 c0 -8 7 -15 15 -15 8 0 15 7 15 15 0 8 -7 15 -15 15 -8 0
-15 -7 -15 -15z"/>
<path d="M1200 1400 c0 -11 5 -20 11 -20 7 0 17 -7 24 -17 7 -9 17 -13 23 -9
17 10 15 36 -3 36 -9 0 -18 7 -21 15 -9 22 -34 18 -34 -5z"/>
<path d="M1306 1381 c-3 -5 1 -14 8 -20 16 -13 32 2 21 19 -8 12 -22 13 -29 1z"/>
<path d="M1180 1315 c0 -8 7 -15 15 -15 8 0 15 7 15 15 0 8 -7 15 -15 15 -8 0
-15 -7 -15 -15z"/>
<path d="M1230 1300 c0 -23 25 -27 33 -6 7 16 -1 26 -20 26 -7 0 -13 -9 -13
-20z"/>
<path d="M1300 1274 c0 -14 4 -23 10 -19 6 3 10 15 10 26 0 10 -4 19 -10 19
-5 0 -10 -12 -10 -26z"/>
<path d="M1247 1237 c-3 -7 -1 -20 4 -28 6 -11 11 -11 21 -1 10 10 9 15 -4 28
-13 13 -16 13 -21 1z"/>
<path d="M1196 1201 c-3 -4 0 -20 7 -35 13 -28 47 -36 47 -11 0 8 -4 15 -9 15
-5 0 -13 9 -16 20 -7 21 -20 26 -29 11z"/>
<path d="M1297 1196 c-6 -15 1 -26 15 -26 11 0 10 27 -1 34 -5 3 -11 0 -14 -8z"/>
<path d="M1300 1110 c0 -11 4 -20 9 -20 11 0 22 26 14 34 -12 12 -23 5 -23
-14z"/>
<path d="M1232 1093 c4 -21 33 -25 33 -3 0 8 -8 16 -18 18 -14 3 -18 -1 -15
-15z"/>
<path d="M1180 1075 c0 -8 7 -15 15 -15 8 0 15 -9 15 -20 0 -13 7 -20 20 -20
11 0 20 5 20 10 0 6 -4 10 -10 10 -5 0 -12 11 -16 25 -7 27 -44 36 -44 10z"/>
<path d="M930 715 c0 -8 7 -15 15 -15 8 0 15 7 15 15 0 8 -7 15 -15 15 -8 0
-15 -7 -15 -15z"/>
<path d="M1105 690 c-4 -6 -3 -16 3 -22 6 -6 12 -6 17 2 4 6 3 16 -3 22 -6 6
-12 6 -17 -2z"/>
<path d="M1551 1312 c-14 -27 -14 -86 1 -115 6 -12 16 -31 21 -42 28 -54 42
-80 47 -85 6 -6 40 -77 76 -160 41 -95 92 -174 122 -188 14 -6 46 -12 69 -12
39 0 49 5 93 50 l50 49 0 71 c0 57 -5 81 -26 123 -15 29 -34 57 -43 63 -40 29
-154 149 -218 232 -15 19 -31 23 -99 29 -76 5 -83 4 -93 -15z m90 -62 c5 0 9
7 9 15 0 22 27 18 40 -5 6 -11 16 -20 22 -20 23 0 58 -44 58 -73 0 -26 3 -29
24 -25 28 6 39 -10 44 -61 2 -12 5 -12 14 -3 20 20 31 14 24 -13 -6 -22 -3
-25 19 -25 26 0 31 -14 15 -40 -8 -13 -11 -12 -23 4 -12 16 -15 16 -28 4 -21
-22 -36 -12 -58 38 -12 27 -26 44 -37 44 -12 0 -15 6 -12 25 3 14 1 25 -4 25
-5 0 -8 10 -6 23 2 14 -2 22 -12 22 -11 0 -14 -9 -12 -37 4 -37 3 -38 -32 -38
-27 0 -39 6 -53 28 -28 40 -43 79 -43 111 0 37 10 45 27 21 8 -11 18 -20 24
-20z m125 -192 c2 -2 7 -22 12 -43 6 -30 13 -41 32 -45 16 -4 26 -14 28 -28 4
-25 27 -30 36 -7 3 8 17 15 32 15 17 0 28 6 31 20 12 46 38 13 47 -61 11 -91
-24 -148 -96 -156 -33 -4 -48 0 -65 15 -13 11 -23 24 -23 30 0 6 -6 17 -12 24
-12 12 -25 40 -88 182 -28 63 -22 77 25 66 20 -5 38 -10 41 -12z"/>
<path d="M1677 1233 c-22 -6 -17 -27 6 -31 12 -2 17 3 17 17 0 12 -1 20 -2 20
-2 -1 -11 -3 -21 -6z"/>
<path d="M1610 1211 c0 -12 6 -21 16 -21 9 0 14 7 12 17 -5 25 -28 28 -28 4z"/>
<path d="M1657 1145 c-8 -18 11 -31 25 -17 11 11 3 32 -12 32 -4 0 -10 -7 -13
-15z"/>
<path d="M1785 1121 c-8 -15 3 -31 21 -31 9 0 14 7 12 17 -4 20 -24 28 -33 14z"/>
<path d="M1820 1040 c0 -11 7 -20 15 -20 8 0 15 9 15 20 0 11 -7 20 -15 20 -8
0 -15 -9 -15 -20z"/>
<path d="M664 1263 c-24 -22 -94 -120 -94 -131 0 -5 -9 -17 -21 -28 -12 -10
-27 -31 -35 -46 -7 -14 -19 -32 -26 -40 -19 -20 -54 -87 -72 -138 -33 -95 -14
-161 54 -181 33 -10 44 -9 82 10 57 27 178 144 178 171 0 6 4 10 10 10 5 0 12
11 16 25 3 14 10 25 15 25 5 0 9 5 9 10 0 6 11 33 25 62 14 28 25 58 25 65 0
7 4 13 9 13 11 0 24 111 15 134 -9 23 -85 56 -132 56 -23 0 -47 -7 -58 -17z
m91 -74 c6 -9 19 -18 29 -20 30 -6 32 -29 2 -29 -16 0 -26 -6 -26 -15 0 -8 7
-15 15 -15 21 0 11 -37 -30 -115 -48 -93 -64 -115 -133 -184 -59 -59 -64 -62
-81 -47 -10 9 -23 16 -29 16 -7 0 -12 5 -12 10 0 6 -4 10 -10 10 -5 0 -10 -9
-10 -21 0 -14 5 -19 14 -16 8 3 16 -2 19 -14 4 -16 1 -20 -16 -17 -31 4 -48
45 -37 92 11 49 15 52 45 36 18 -9 25 -22 25 -41 0 -20 4 -27 14 -23 8 3 11
15 8 32 -5 24 -4 26 11 13 10 -7 17 -20 17 -28 0 -17 22 -13 28 5 2 7 -3 12
-12 12 -9 0 -16 8 -16 19 0 12 -9 20 -25 23 -14 3 -25 1 -25 -3 0 -5 -4 -9
-10 -9 -5 0 -10 9 -10 19 0 11 -5 23 -10 26 -8 5 0 34 15 53 5 6 35 -11 31
-17 -3 -4 -1 -13 4 -21 7 -12 12 -12 21 -3 8 8 9 16 2 25 -6 7 -13 25 -17 41
-6 26 -5 27 34 27 29 0 40 4 40 15 0 9 -9 15 -25 15 -30 0 -32 11 -6 34 16 15
19 15 31 1 16 -19 40 -19 40 0 0 8 -6 15 -14 15 -13 0 -26 20 -26 41 0 10 34
12 68 3 13 -4 22 -14 22 -25 0 -11 7 -19 15 -19 8 0 15 7 15 15 0 9 -7 18 -15
21 -8 4 -15 12 -15 19 0 7 -11 16 -25 19 -14 4 -25 10 -25 15 0 14 28 33 39
26 6 -3 16 3 23 15 12 19 13 19 18 3 3 -10 10 -25 15 -34z m53 23 c3 -9 -2
-13 -14 -10 -9 1 -19 9 -22 16 -3 9 2 13 14 10 9 -1 19 -9 22 -16z"/>
<path d="M713 1048 c2 -7 10 -13 17 -13 7 0 15 6 18 13 2 7 -5 12 -18 12 -13
0 -20 -5 -17 -12z"/>
<path d="M647 1025 c-7 -16 8 -29 23 -20 15 9 12 35 -4 35 -8 0 -16 -7 -19
-15z"/>
<path d="M675 970 c-11 -17 5 -32 21 -19 7 6 11 15 8 20 -7 12 -21 11 -29 -1z"/>
<path d="M610 955 c0 -8 7 -15 15 -15 8 0 15 7 15 15 0 8 -7 15 -15 15 -8 0
-15 -7 -15 -15z"/>
<path d="M581 910 c-16 -9 -6 -30 15 -30 15 0 20 25 6 34 -4 2 -14 1 -21 -4z"/>
<path d="M622 884 c4 -21 22 -23 26 -1 2 10 -3 17 -13 17 -10 0 -15 -6 -13
-16z"/>
<path d="M467 830 c4 -16 8 -18 19 -9 16 13 10 29 -11 29 -8 0 -11 -7 -8 -20z"/>
</g>
</svg>
